<svg viewBox="0 0 1080 1080" fill="none" xmlns="http://www.w3.org/2000/svg">        <defs>    <filter id="filter" x="-20%" y="-20%" width="140%" height="140%" filterUnits="objectBoundingBox" primitiveUnits="userSpaceOnUse" color-interpolation-filters="linearRGB">      <feMorphology operator="dilate" radius="20 20" in="SourceAlpha" result="morphology"/>      <feFlood flood-color="#ffffff" flood-opacity="1" result="flood"/>      <feComposite in="flood" in2="morphology" operator="in" result="composite"/>      <feMerge result="merge">            <feMergeNode in="composite" result="mergeNode"/>        <feMergeNode in="SourceGraphic" result="mergeNode1"/>        </feMerge>    </filter>  </defs>        <g id="notion-avatar" filter="url(#filter)">          <g id="notion-avatar-face" fill="#ffffff">            <title>Face/ 2</title>    <g id="Face/-2" stroke="none" stroke-width="1" fill-rule="evenodd" stroke-linecap="round" stroke-linejoin="round">        <path d="M532,379 C664.54834,379 772,486.45166 772,619 C772,751.54834 664.54834,899 532,899 C432.699202,899 347.483933,816.242653 310.982017,718.993409 C267.268677,718.448846 232,682.843144 232,639 C232,599.134956 261.158843,566.080325 299.312086,560.00055 C325.599297,455.979213 419.809919,379 532,379 Z M295.858895,624.545187 L304.141105,655.454813" id="Path" stroke="#000000" stroke-width="24"/>    </g>      </g><g id="notion-avatar-nose">            <title>Nose/ 3</title>    <g id="Nose/-3" stroke="none" stroke-width="1" fill="none" fill-rule="evenodd" stroke-linecap="round" stroke-linejoin="round">        <path d="M636.843465,595.910607 C654.994141,637.483681 663.279537,666.31686 661.699654,682.410144 C660.11977,698.503428 648.515798,703.474491 626.887739,697.323331" id="Line" stroke="#000000" stroke-width="16" transform="translate(644.388576, 647.892684) rotate(1.032339) translate(-644.388576, -647.892684) "/>    </g>      </g><g id="notion-avatar-mouth">        <g id="Mouth/ 12"><g id="Group"><path id="Path" fill-rule="evenodd" clip-rule="evenodd" d="M543.87 801.555C524.148 789.209 514.057 767.766 521.396 758.019C528.734 748.272 569 762.637 609 762.319C649 762 689.266 748.272 696.604 758.019C703.943 767.766 693.852 789.209 674.13 801.555C665.101 807.207 637.818 814 609.443 814C581.069 814 552.807 807.15 543.87 801.555Z" stroke="black" stroke-width="16" stroke-linecap="round" stroke-linejoin="round"/><path id="Path_2" d="M569.322 804C569.322 804 589.161 796 609 796C628.838 796 648.677 804 648.677 804" stroke="black" stroke-width="8" stroke-linecap="round" stroke-linejoin="round"/></g></g>      </g><g id="notion-avatar-eyes">            <title>Eyes/ 1</title>    <g id="Eyes/-1" stroke="none" stroke-width="1" fill="none" fill-rule="evenodd">        <g id="Group" transform="translate(546.000000, 509.000000)">            <path d="M24,7 C37.254834,7 48,17.745166 48,31 C48,44.254834 37.254834,55 24,55 C10.745166,55 0,44.254834 0,31 C0,17.745166 10.745166,7 24,7 Z M162,7 C175.254834,7 186,17.745166 186,31 C186,44.254834 175.254834,55 162,55 C148.745166,55 138,44.254834 138,31 C138,17.745166 148.745166,7 162,7 Z" id="Combined-Shape" fill="#000000"/>            <g id="Path" stroke="#000000" stroke-linecap="round" stroke-linejoin="round" stroke-width="4">                <path d="M0,7 C8,2.33333333 16,0 24,0 C32,0 40,2.33333333 48,7"/>                <path d="M138,7 C146,2.33333333 154,0 162,0 C170,0 178,2.33333333 186,7"/>            </g>        </g>    </g>      </g><g id="notion-avatar-eyebrows">        <g id="Eyebrows/ 13"><g id="Group"><path id="Path" fill-rule="evenodd" clip-rule="evenodd" d="M662.391 482.335C665.391 477.335 722.391 459.335 742.391 462.335C762.391 465.335 791.391 491.335 791.391 491.335C791.391 491.335 764.391 480.335 739.391 480.335C714.391 480.335 679.391 498.335 679.391 498.335C679.391 498.335 659.391 487.335 662.391 482.335Z" fill="black" stroke="black" stroke-width="4" stroke-linecap="round" stroke-linejoin="round"/><path id="Path_2" fill-rule="evenodd" clip-rule="evenodd" d="M615 482.335C612 477.335 555 459.335 535 462.335C515 465.335 486 491.335 486 491.335C486 491.335 513 480.335 538 480.335C563 480.335 598 498.335 598 498.335C598 498.335 618 487.335 615 482.335Z" fill="black" stroke="black" stroke-width="4" stroke-linecap="round" stroke-linejoin="round"/></g></g>      </g><g id="notion-avatar-glasses">            <title>Glasses/ 6</title>    <g id="Glasses/-6" stroke="none" stroke-width="1" fill="none" fill-rule="evenodd" stroke-linecap="round" stroke-linejoin="round">        <g id="Group" transform="translate(289.000000, 489.000000)" fill="#000000" stroke="#000000" stroke-width="4">            <path d="M507.197382,9.82478969 C513.43226,17.7007378 515.213654,62.5936419 486.711355,88.5842707 C469.404358,104.366146 429.38069,108.487745 402.985851,98.8230032 C386.082673,92.6337314 377.827731,74.7226245 375.444668,70.5905602 L375.374248,70.46959 C367.818365,57.6210186 359.693569,48.7969114 350.999861,43.9972684 C342.444422,48.7207266 334.439709,57.3419022 326.985986,69.8607952 L326.625752,70.46959 C324.338153,74.359588 316.088066,92.5712135 299.014149,98.8230032 C272.61931,108.487745 232.595642,104.366146 215.288645,88.5842707 C186.786346,62.5936419 188.56774,17.7007378 194.802618,9.82478969 C201.037496,1.94884159 243.790945,-3.56432208 278.528122,2.7364364 C313.265299,9.03719488 328.491531,25.281971 335.53272,27.9394703 C339.929408,29.5988766 344.89638,30.3949699 350.433636,30.3277503 L350.434736,30.3022547 L351,30.3179093 L351.565264,30.3022547 L351.566163,30.3277478 C357.1035,30.3949891 362.070539,29.5988966 366.46728,27.9394703 C373.508469,25.281971 388.734701,9.03719488 423.471878,2.7364364 C458.209055,-3.56432208 500.962504,1.94884159 507.197382,9.82478969 Z M209.053767,15.3379534 C189.458437,28.7270651 207.272374,75.1951589 225.977008,88.5842707 C244.681642,101.973382 289.216484,98.8230032 299.904846,91.7346499 C310.593209,84.6462966 334.642023,53.930099 326.625752,34.2402288 C318.60948,14.5503585 237.556067,1.16124678 209.053767,15.3379534 Z M492.946233,15.3379534 C464.443933,1.16124678 383.39052,14.5503585 375.374248,34.2402288 C367.357977,53.930099 391.406791,84.6462966 402.095154,91.7346499 C412.783516,98.8230032 457.318358,101.973382 476.022992,88.5842707 C494.727626,75.1951589 512.541563,28.7270651 492.946233,15.3379534 Z" id="Combined-Shape"/>            <polygon id="Path" points="199 20 4 52 0 61 199 41"/>        </g>    </g>      </g><g id="notion-avatar-hair">            <title>Hairstyle/ 22</title>    <g id="Hairstyle/-22" stroke="none" stroke-width="1" fill="none" fill-rule="evenodd" stroke-linecap="round" stroke-linejoin="round">        <path d="M425,201 C310,212 211,280 158,422 C105,564 161.287214,689.773572 175,784 C184.141857,846.817619 161.141857,921.484285 106,1008 C192.864732,1027.85309 254.864732,1035.51975 292,1031 C329.135268,1026.48025 373.468601,1000.48025 425,953 C420.886316,904.364395 414.552982,870.031062 406,850 C391.145409,815.210588 353.469806,793.84117 344,784 C326.351402,765.6593 313.018068,743.992633 304,719 C256,709.666667 232,683 232,639 C232,573 284,568 304,566 C324,564 340,568 354,587 C363.333333,599.666667 369,610.333333 371,619 C389.482917,586.176997 401.149584,559.510331 406,539 C410.850416,518.489669 410.850416,495.823003 406,471 C464.666667,471 506.666667,464 532,450 C557.333333,436 583,415.333333 609,388 C644.333333,398.666667 672.666667,414 694,434 C715.333333,454 740.333333,491 769,545 C767,451.666667 744.666667,379 702,327 C638,249 540,190 425,201 Z" id="Path" stroke="#000000" stroke-width="12" fill="#000000"/>    </g>      </g><g id="notion-avatar-accessories">            <title>Accessories/ 0</title>    <g id="Accessories/-0" stroke="none" stroke-width="1" fill="none" fill-rule="evenodd"/>      </g><g id="notion-avatar-details">            <title>Details/ 0</title>    <g id="Details/-0" stroke="none" stroke-width="1" fill="none" fill-rule="evenodd"/>      </g><g id="notion-avatar-beard">            <title>Beard/ 0</title>    <g id="Beard/-0" stroke="none" stroke-width="1" fill="none" fill-rule="evenodd"/>      </g>        </g>        </svg>