<svg xmlns="http://www.w3.org/2000/svg" viewBox="0 0 24 24" width="24" height="24"><path fill="#3969CA" d="M 2.033 9.867 L 4.587 11.35 C 4.6769 11.4023 4.779 11.4298 4.883 11.4298 C 4.987 11.4298 5.0891 11.4023 5.179 11.35 L 7.733 9.867 L 7.743 9.859 C 7.7827 9.8353 7.8197 9.8071 7.853 9.775 L 7.866 9.76 C 7.8946 9.7293 7.9201 9.6958 7.942 9.66 C 7.945 9.655 7.95 9.65 7.952 9.644 C 7.9743 9.6046 7.9918 9.5626 8.004 9.519 L 8.011 9.491 C 8.0227 9.4452 8.0291 9.3982 8.03 9.351 L 8.03 7.868 C 8.03 7.296 8.337 6.763 8.83 6.476 C 9.0728 6.3355 9.3485 6.2614 9.629 6.2614 C 9.9095 6.2614 10.1852 6.3355 10.428 6.476 L 11.705 7.218 C 11.7455 7.2412 11.7889 7.259 11.834 7.271 L 11.862 7.281 C 11.906 7.291 11.95 7.296 11.995 7.297 L 12.001 7.297 L 12.014 7.295 C 12.1086 7.2925 12.2013 7.2671 12.284 7.221 L 12.295 7.217 L 14.849 5.734 C 14.9394 5.6816 15.0144 5.6063 15.0665 5.5157 C 15.1187 5.4252 15.1461 5.3225 15.146 5.218 L 15.146 2.253 C 15.1462 2.1485 15.1188 2.0458 15.0667 1.9552 C 15.0145 1.8646 14.9395 1.7893 14.849 1.737 L 12.293 0.257 C 12.2033 0.2047 12.1013 0.1772 11.9975 0.1772 C 11.8937 0.1772 11.7917 0.2047 11.702 0.257 L 9.148 1.737 L 9.138 1.747 C 9.0987 1.7705 9.0621 1.7983 9.029 1.83 L 9.015 1.845 C 8.9864 1.8757 8.9609 1.9092 8.939 1.945 C 8.936 1.95 8.931 1.955 8.929 1.961 C 8.9068 2.0001 8.8894 2.0418 8.877 2.085 L 8.87 2.113 C 8.8586 2.1588 8.8526 2.2058 8.852 2.253 L 8.852 3.736 C 8.852 4.308 8.545 4.841 8.052 5.129 C 7.809 5.2695 7.5332 5.3435 7.2525 5.3435 C 6.9718 5.3435 6.696 5.2695 6.453 5.129 L 5.177 4.387 C 5.1359 4.3643 5.0922 4.3465 5.047 4.334 L 5.019 4.326 C 4.9754 4.3155 4.9308 4.3095 4.886 4.308 L 4.866 4.308 C 4.7716 4.31 4.6791 4.3354 4.597 4.382 C 4.594 4.384 4.589 4.384 4.585 4.387 L 2.033 5.872 C 1.9428 5.9243 1.8678 5.9995 1.8157 6.0898 C 1.7636 6.1802 1.7361 6.2827 1.736 6.387 L 1.736 9.353 C 1.736 9.566 1.849 9.763 2.033 9.868 Z"/><path fill="#21C19A" d="M 15.943 10.607 C 16.186 10.4664 16.4618 10.3923 16.7425 10.3923 C 17.0232 10.3923 17.299 10.4664 17.542 10.607 L 18.818 11.347 C 18.859 11.372 18.903 11.387 18.948 11.402 L 18.976 11.41 C 19.019 11.42 19.064 11.426 19.109 11.428 L 19.114 11.428 C 19.119 11.428 19.124 11.426 19.128 11.425 C 19.1692 11.425 19.2102 11.4196 19.25 11.409 L 19.271 11.404 C 19.3148 11.3914 19.3571 11.3739 19.397 11.352 C 19.401 11.35 19.406 11.35 19.41 11.347 L 21.964 9.865 C 22.0543 9.8125 22.1293 9.7372 22.1814 9.6467 C 22.2335 9.5561 22.261 9.4535 22.261 9.349 L 22.261 6.383 C 22.2609 6.2787 22.2334 6.1762 22.1813 6.0858 C 22.1292 5.9955 22.0542 5.9203 21.964 5.868 L 19.412 4.385 C 19.3222 4.3326 19.22 4.3049 19.116 4.3049 C 19.012 4.3049 18.9098 4.3326 18.82 4.385 L 16.267 5.867 L 16.256 5.875 C 16.217 5.8989 16.1807 5.927 16.148 5.959 L 16.134 5.975 C 16.1054 6.0057 16.08 6.0392 16.058 6.075 C 16.055 6.08 16.05 6.085 16.048 6.091 C 16.0258 6.1301 16.0084 6.1718 15.996 6.215 L 15.989 6.244 C 15.9776 6.2898 15.9716 6.3368 15.971 6.384 L 15.971 7.866 C 15.971 8.438 15.664 8.971 15.171 9.259 C 14.928 9.3995 14.6522 9.4735 14.3715 9.4735 C 14.0908 9.4735 13.815 9.3995 13.572 9.259 L 12.296 8.517 C 12.255 8.4942 12.2113 8.4764 12.166 8.464 L 12.138 8.456 C 12.0944 8.4452 12.0499 8.4392 12.005 8.438 L 11.985 8.438 C 11.8907 8.4407 11.7984 8.4661 11.716 8.512 L 11.704 8.516 L 9.15 10 C 9.0598 10.0525 8.985 10.1279 8.933 10.2184 C 8.8811 10.309 8.8538 10.4116 8.854 10.516 L 8.854 13.482 C 8.854 13.694 8.966 13.891 9.15 13.997 L 11.704 15.48 C 11.704 15.48 11.712 15.482 11.716 15.485 C 11.756 15.507 11.798 15.525 11.842 15.537 L 11.862 15.541 C 11.9023 15.5511 11.9435 15.5568 11.985 15.558 L 11.999 15.56 L 12.005 15.56 C 12.059 15.56 12.113 15.55 12.165 15.535 C 12.2103 15.5223 12.254 15.5041 12.295 15.481 L 13.572 14.74 C 13.8155 14.5988 14.092 14.5245 14.3734 14.5246 C 14.6549 14.5246 14.9314 14.5991 15.1748 14.7404 C 15.4182 14.8817 15.62 15.0849 15.7596 15.3292 C 15.8992 15.5736 15.9718 15.8506 15.97 16.132 L 15.97 17.614 C 15.97 17.663 15.977 17.709 15.989 17.754 L 15.996 17.782 C 16.0084 17.8254 16.0255 17.8673 16.047 17.907 C 16.051 17.913 16.055 17.917 16.057 17.923 C 16.0788 17.9589 16.1042 17.9924 16.133 18.023 L 16.147 18.038 C 16.18 18.07 16.216 18.098 16.255 18.122 C 16.259 18.124 16.261 18.128 16.266 18.13 L 18.82 19.613 C 18.91 19.6653 19.0124 19.6929 19.1165 19.6929 C 19.2206 19.6929 19.323 19.6653 19.413 19.613 L 21.967 18.13 C 22.0571 18.0774 22.1319 18.002 22.1838 17.9115 C 22.2358 17.821 22.2631 17.7184 22.263 17.614 L 22.263 14.649 C 22.2633 14.5446 22.2361 14.4419 22.1841 14.3514 C 22.1322 14.2608 22.0573 14.1855 21.967 14.133 L 19.413 12.65 C 19.413 12.65 19.405 12.648 19.401 12.645 C 19.3613 12.6228 19.319 12.6056 19.275 12.594 C 19.268 12.591 19.262 12.591 19.255 12.589 C 19.214 12.5792 19.1721 12.5735 19.13 12.572 L 19.112 12.572 C 19.0577 12.5728 19.0038 12.5816 18.952 12.598 C 18.9067 12.6104 18.8631 12.6282 18.822 12.651 L 17.546 13.393 C 17.3032 13.5335 17.0275 13.6076 16.747 13.6076 C 16.4665 13.6076 16.1908 13.5335 15.948 13.393 C 15.7054 13.2505 15.5041 13.047 15.3644 12.8027 C 15.2246 12.5585 15.151 12.2819 15.151 12.0005 C 15.151 11.7191 15.2246 11.4425 15.3644 11.1983 C 15.5041 10.954 15.7054 10.7505 15.948 10.608 L 15.943 10.607 Z"/><path fill="#0294DE" d="M 14.848 18.265 L 12.294 16.783 L 12.282 16.778 C 12.2424 16.7553 12.2001 16.7378 12.156 16.726 C 12.149 16.724 12.142 16.724 12.136 16.721 C 12.0953 16.7113 12.0538 16.7056 12.012 16.704 L 11.992 16.704 C 11.9377 16.7049 11.8838 16.7136 11.832 16.73 C 11.7867 16.7424 11.7431 16.7602 11.702 16.783 L 10.426 17.525 C 10.1832 17.6656 9.9076 17.7397 9.627 17.7397 C 9.3464 17.7397 9.0708 17.6656 8.828 17.525 C 8.335 17.239 8.028 16.705 8.028 16.132 L 8.028 14.65 C 8.0279 14.6028 8.0218 14.5557 8.01 14.51 L 8.002 14.482 C 7.9897 14.4389 7.9725 14.3973 7.951 14.358 L 7.941 14.341 C 7.9192 14.3051 7.8937 14.2716 7.865 14.241 L 7.851 14.226 C 7.818 14.1939 7.7815 14.1657 7.742 14.142 C 7.739 14.14 7.737 14.136 7.732 14.134 L 5.178 12.65 C 5.0883 12.5977 4.9863 12.5702 4.8825 12.5702 C 4.7787 12.5702 4.6767 12.5977 4.587 12.65 L 2.033 14.133 C 1.9426 14.1854 1.8676 14.2607 1.8155 14.3513 C 1.7633 14.4418 1.7359 14.5445 1.736 14.649 L 1.736 17.614 C 1.736 17.827 1.849 18.024 2.033 18.13 L 4.587 19.613 L 4.599 19.617 C 4.6812 19.6616 4.7726 19.6869 4.866 19.691 L 4.882 19.693 L 4.889 19.693 C 4.9433 19.6923 4.9972 19.6835 5.049 19.667 C 5.094 19.6545 5.1373 19.6368 5.178 19.614 L 6.455 18.872 C 6.6986 18.7308 6.9752 18.6565 7.2567 18.6566 C 7.5382 18.6567 7.8148 18.7312 8.0582 18.8727 C 8.3017 19.0141 8.5034 19.2174 8.643 19.4619 C 8.7826 19.7064 8.855 19.9835 8.853 20.265 L 8.853 21.747 C 8.853 21.797 8.86 21.842 8.872 21.887 L 8.879 21.915 C 8.892 21.959 8.909 22 8.93 22.04 L 8.94 22.056 C 8.962 22.092 8.987 22.126 9.016 22.156 L 9.03 22.171 C 9.062 22.203 9.099 22.231 9.139 22.255 L 9.149 22.263 L 11.703 23.746 C 11.7929 23.7986 11.8953 23.8264 11.9995 23.8264 C 12.1037 23.8264 12.2061 23.7986 12.296 23.746 L 14.85 22.263 C 14.9401 22.2105 15.0148 22.1354 15.0667 22.045 C 15.1187 21.9546 15.146 21.8522 15.146 21.748 L 15.146 18.782 C 15.1462 18.6776 15.1189 18.575 15.067 18.4844 C 15.015 18.3939 14.9402 18.3185 14.85 18.266 L 14.848 18.266 Z"/></svg>